PathFileType	4	(X/Y/Z)	walk-thru1-1-TP.trc
DataRate	CameraRate	NumFrames	NumMarkers	Units	OrigDataRate	OrigDataStartFrame	OrigNumFrames
120.00	120.00	       4	60	mm	120.00	217	       432
Frame#	Time	Top.Head			Front.Head			Rear.Head			Jaw			C7			R.Clavicle			L.Clavicle			R.Shoulder			L.Shoulder			R.Scapula			L.Scapula			R.Scap.Inf			R.Biceps.Lateral			R.Elbow			R.Elbow.Medial			R.Forearm			R.Ulna			R.Radius			R.Wrist			R.Thumb.M1			R.Thumb.M2			R.Thumb.M3			R.Finger3.M1			R.Finger3.M2			R.Finger3.M3			L.Biceps.Lateral			L.Elbow			L.Elbow.Medial			L.Forearm			L.Ulna			L.Radius			L.Wrist			L.Thumb.M1			L.Thumb.M2			L.Thumb.M3			L.Finger3.M1			L.Finger3.M2			L.Finger3.M3			V.Sacral			R.ASIS			L.ASIS			R.Thigh			R.Thigh.Front			R.Knee			R.Knee.Medial			R.Shank			R.Ankle			R.Ankle.Medial			R.Heel			R.Toe			R.MedFoot			L.Thigh			L.Knee			L.Knee.Medial			L.Shank			L.Ankle			L.Ankle.Medial			L.Heel			L.Toe			L.MedFoot			V_mid_ASIS			V_R_Knee_JC			V_L_Knee_JC			V_R_Elbow_JC			V_L_Elbow_JC			V_R_Ankle_JC			V_L_Ankle_JC			V_R_Wrist_JC			V_L_Wrist_JC			V_R_ScaTrpz_1stMC_JC			V_R_1stMC_1stPP_JC			V_R_1stPP_1stDP_JC			V_R_LunCap_3rdMC_JC			V_R_3rdMC_3rdPP_JC			V_R_3rdPP_3rdMP_JC			V_R_3rdMP_3rdDP_JC			V_L_ScaTrpz_1stMC_JC			V_L_1stMC_1stPP_JC			V_L_1stPP_1stDP_JC			V_L_LunCap_3rdMC_JC			V_L_3rdMC_3rdPP_JC			V_L_3rdPP_3rdMP_JC			V_L_3rdMP_3rdPP_JC			V_ROOT_JC			V_R_Hip_JC			V_L_Hip_JC			V_R_GlenHum_JC			V_L_GlenHum_JC			V_ForeHead_Ctr			V_Vertex			V_Sagit_Lambdoid_Suture			V_R_FrontoTemp			V_L_FrontoTemporal			V_R_ParietalOccip			V_L_ParietalOcciptal			V_R_Temporal			V_L_Temporal			V_mid_FrontRearHead			V_mid_RLGlenHumCtrs			V_C7_vert			V_C1_vert			V_Mid_Hip			
		X1	Y1	Z1	X2	Y2	Z2	X3	Y3	Z3	X4	Y4	Z4	X5	Y5	Z5	X6	Y6	Z6	X7	Y7	Z7	X8	Y8	Z8	X9	Y9	Z9	X10	Y10	Z10	X11	Y11	Z11	X12	Y12	Z12	X13	Y13	Z13	X14	Y14	Z14	X15	Y15	Z15	X16	Y16	Z16	X17	Y17	Z17	X18	Y18	Z18	X19	Y19	Z19	X20	Y20	Z20	X21	Y21	Z21	X22	Y22	Z22	X23	Y23	Z23	X24	Y24	Z24	X25	Y25	Z25	X26	Y26	Z26	X27	Y27	Z27	X28	Y28	Z28	X29	Y29	Z29	X30	Y30	Z30	X31	Y31	Z31	X32	Y32	Z32	X33	Y33	Z33	X34	Y34	Z34	X35	Y35	Z35	X36	Y36	Z36	X37	Y37	Z37	X38	Y38	Z38	X39	Y39	Z39	X40	Y40	Z40	X41	Y41	Z41	X42	Y42	Z42	X43	Y43	Z43	X44	Y44	Z44	X45	Y45	Z45	X46	Y46	Z46	X47	Y47	Z47	X48	Y48	Z48	X49	Y49	Z49	X50	Y50	Z50	X51	Y51	Z51	X52	Y52	Z52	X53	Y53	Z53	X54	Y54	Z54	X55	Y55	Z55	X56	Y56	Z56	X57	Y57	Z57	X58	Y58	Z58	X59	Y59	Z59	X60	Y60	Z60	

217	1.800	65.71765	19.30563	1807.02649	-34.47421	10.17847	1694.05798	192.95015	12.42345	1709.17517	9.55736	9.00071	1530.40295	204.86375	8.54714	1573.35083	111.17547	127.47989	1477.13574	96.28400	-99.03535	1480.76074	156.54988	211.65953	1471.54285	162.40009	-196.79059	1494.48975	259.44556	93.03397	1490.12012	256.35306	-72.54819	1493.84937	309.39990	100.54847	1403.75623	216.45567	269.01868	1297.65601	260.75052	285.56812	1147.78125	273.35358	194.97835	1129.74182	174.04256	239.88608	1028.63440	212.83705	281.76434	930.29126	148.76546	223.68004	899.33386	156.63992	262.79602	851.51184	138.54936	218.97661	866.58990	104.04543	187.96756	823.56360	65.78841	184.72499	797.12012	114.55855	266.10037	781.61182	99.48856	227.81746	728.01080	105.37399	184.31964	701.72046	177.86076	-261.72766	1343.05066	179.43044	-307.38519	1166.66418	224.75952	-242.80225	1142.99304	97.90254	-276.99899	1073.84497	133.12210	-298.02548	976.33453	57.52879	-243.51324	941.02631	54.49585	-274.08005	881.94440	38.18562	-227.12038	881.64258	31.20894	-187.10509	837.17767	10.82511	-186.83731	780.11591	23.07481	-281.03619	811.29242	21.47358	-256.70636	755.94568	32.53643	-234.22173	710.20081	302.14349	-6.93672	1097.58557	215.69286	186.64146	1037.74146	199.10219	-189.67313	1038.11377	96.88214	170.29849	642.12518	1.12963	101.83398	561.31299	68.69450	154.14078	511.25732	54.02872	33.80197	508.84476	162.47385	109.07108	354.32568	399.71786	117.46307	222.13484	346.23273	31.01262	204.29832	449.15930	48.98026	233.53836	288.36905	110.58742	86.06968	311.38788	62.39072	132.20876	141.42201	-164.70660	655.89600	112.53857	-135.48647	506.69720	107.99641	-20.79600	511.22601	113.84698	-78.40593	309.09085	220.38020	-90.11276	69.18605	187.41870	2.66153	111.33008	273.43628	-28.19563	59.46681	36.72687	-43.84389	46.45901	99.56171	-17.27662	73.48859																																																																																																																															
218	1.808	59.43991	18.80196	1807.48718	-40.12841	9.93634	1694.19519	187.08040	11.62078	1709.83301	4.02875	8.90090	1530.00854	199.50635	5.00811	1573.35181	105.85785	125.88009	1476.10046	91.07245	-100.04669	1481.64783	151.10844	211.59059	1472.18738	156.00278	-197.21739	1494.91272	254.51598	93.18098	1490.26453	250.77371	-73.61449	1494.69128	304.30667	100.30163	1403.70764	212.77197	268.28146	1297.96313	256.16632	284.53665	1147.85950	269.32504	193.87112	1129.64868	171.17691	239.29488	1029.85168	208.69501	280.98035	931.34760	144.43069	223.12874	899.33313	152.08966	262.78528	852.57123	134.86160	217.33302	866.63397	98.94842	187.10550	824.06555	61.51872	184.77573	797.53009	111.75315	265.41605	781.84259	95.78690	226.65860	728.66119	101.29991	182.47366	701.98389	170.88739	-262.70087	1343.36560	171.74663	-308.84967	1167.10864	217.01974	-243.88087	1143.67249	90.10355	-278.63437	1074.91858	124.12240	-299.67200	977.60413	48.25224	-243.57896	942.68933	44.61144	-274.06665	883.22681	27.48869	-228.00861	883.13354	20.62192	-188.63936	838.64240	0.33313	-187.90915	781.45453	13.05705	-281.44415	813.22394	10.85206	-256.14539	757.80908	22.47879	-233.91362	712.18646	297.16144	-6.65528	1097.73206	207.19766	184.71056	1038.39258	193.69077	-189.64951	1038.31067	87.61433	170.05782	643.50696	-9.01996	101.93193	563.38147	59.02556	153.70058	512.70050	45.84114	35.45660	510.30728	149.24284	109.61446	355.41824	385.61423	118.01986	219.51089	331.66119	31.58779	203.35271	435.23041	50.32430	230.12834	270.38895	111.50143	84.96071	296.09821	61.74613	131.29054	138.55496	-164.75232	655.72681	110.62426	-135.95328	506.94043	101.26023	-23.25397	510.22379	111.73750	-79.38019	308.81683	220.45341	-90.35213	69.43635	186.53146	2.73938	111.39948	273.47739	-27.97723	60.49339	36.62722	-44.15197	46.25291	99.23913	-17.15235	73.22141																																																																																																																															
219	1.817	52.80936	17.51052	1807.51489	-46.15667	9.67287	1693.62085	180.72191	11.49344	1710.11353	-1.10044	9.35495	1529.72314	193.48616	6.62959	1573.27698	100.39625	125.74784	1476.53040	84.85488	-100.53181	1481.53027	147.46245	211.76715	1472.22864	150.20813	-197.79890	1495.82092	249.45187	92.14982	1490.58691	245.44501	-74.63274	1495.38501	299.31894	100.70418	1404.25623	207.69368	267.44952	1299.64392	252.00359	283.93457	1148.50171	263.62161	192.87062	1129.93555	166.93942	238.57349	1029.94006	205.70909	280.58667	931.25970	139.99794	221.91301	899.93329	150.39883	261.24631	852.03381	133.05855	217.11177	866.38281	95.65476	187.88120	824.02148	58.95987	183.27663	797.72736	107.66898	264.28436	781.96326	92.67336	226.39021	728.87488	99.71667	182.71481	702.03699	164.62619	-263.49954	1344.65112	163.79828	-309.89835	1167.43787	208.57303	-244.31982	1143.27283	81.84412	-278.96130	1076.36658	115.59850	-299.56601	978.13092	39.23814	-244.24863	943.98077	35.31656	-274.75610	884.43073	17.85662	-227.51350	885.06079	11.33448	-188.93007	839.64215	-9.32768	-188.04716	782.87939	3.06720	-281.90250	814.63855	0.00555	-257.33731	759.42072	11.47862	-234.35715	713.50732	291.93918	-7.87040	1098.19507	199.38171	184.20657	1039.41931	189.34990	-190.18697	1038.59033	78.97471	169.85680	645.23895	-18.82478	101.23465	566.01459	49.02081	153.91682	516.19574	34.30124	33.17893	512.15851	136.90454	111.10052	356.42950	371.17960	117.90524	216.06657	317.41550	31.93641	201.00237	421.26932	51.13194	226.30840	253.17145	111.27576	84.54729	277.10641	61.77001	131.07045	135.61862	-163.70287	655.44287	108.14730	-136.42242	506.73120	104.56015	-21.89677	510.67020	110.68159	-79.18069	308.84238	220.63771	-90.39214	69.94546	186.50340	2.16391	111.78043	272.50220	-27.96556	60.98676	36.61861	-44.37626	46.22536	99.37452	-16.50661	73.15017																																																																																																																															
220	1.825	47.10303	16.60529	1807.36865	-52.20545	8.89370	1692.84314	174.54449	11.13045	1711.07117	-6.24679	9.06832	1529.43958	188.92322	5.55149	1572.82654	95.81030	126.16851	1477.93689	80.12940	-100.29371	1482.13171	142.22191	210.85368	1472.04761	145.21930	-198.21338	1495.98718	243.93048	90.70209	1491.20496	239.81975	-74.70357	1495.44214	293.73721	98.69888	1404.16040	204.06181	266.69891	1299.96619	248.00569	283.38495	1149.06995	260.24496	191.89432	1130.87964	163.27679	238.13315	1029.93164	202.59573	279.53311	931.63861	135.79785	223.65567	900.20892	146.16327	260.22971	851.95313	127.48315	215.31441	866.21692	92.02723	186.76973	824.11530	54.88367	183.97871	797.60114	105.40199	264.84357	781.96295	90.12670	227.00191	729.00079	94.94692	181.30551	702.08429	159.22728	-263.81720	1345.20728	156.35023	-308.98624	1167.80859	200.77522	-244.64331	1142.59766	73.49894	-279.02359	1077.42944	106.01895	-299.69254	978.77966	30.13677	-244.80386	945.50653	25.81130	-274.37024	886.47882	9.42139	-227.62810	886.39221	1.42192	-189.02306	842.25708	-19.14406	-188.50621	784.77771	-7.44236	-282.21408	816.40356	-9.56037	-258.43369	761.04608	0.58282	-234.82610	714.74255	287.12585	-7.74126	1098.50354	197.06250	184.03564	1040.22729	186.43008	-191.16852	1038.41711	70.14330	169.71837	646.90991	-27.77931	100.53864	568.93707	38.79044	153.10599	516.80524	25.65327	33.39530	513.50751	124.42761	110.20017	357.12292	356.26614	119.57130	212.34929	302.68283	32.51872	198.33356	406.55316	53.01986	221.29593	235.16425	110.09927	84.02811	258.50128	62.67712	129.38841	132.36813	-164.27168	655.32422	106.43461	-136.92090	506.80682	102.30256	-22.18447	510.62061	109.65099	-79.76407	308.50974	220.73567	-90.31419	69.87155	186.79720	1.95806	111.47276	272.93671	-27.67608	61.01340	36.81002	-44.41439	46.10286	99.75220	-15.66342	73.15919																																																																																																																															
